<mxfile host="65bd71144e" modified="2022-02-08T05:38:36.503Z" agent="5.0 (Macintosh; Intel Mac OS X 10_15_7) AppleWebKit/537.36 (KHTML, like Gecko) Code/1.64.0 Chrome/91.0.4472.164 Electron/13.5.2 Safari/537.36" etag="jnHFkCD9PBilhm-RvZYo" version="16.4.5" type="embed">
    <diagram id="NN9QKFObi5tGsA_8So93" name="Page-1">
        <mxGraphModel dx="679" dy="680" grid="1" gridSize="10" guides="0" tooltips="1" connect="1" arrows="1" fold="1" page="1" pageScale="1" pageWidth="583" pageHeight="827" math="0" shadow="0">
            <root>
                <mxCell id="0"/>
                <mxCell id="1" parent="0"/>
                <mxCell id="25" value="" style="rounded=1;whiteSpace=wrap;html=1;opacity=20;fillColor=#000000;fontFamily=Noto Sans Japanese;fontSource=https%3A%2F%2Ffonts.googleapis.com%2Fcss%3Ffamily%3DNoto%2BSans%2BJapanese;" parent="1" vertex="1">
                    <mxGeometry x="200" y="260" width="270" height="200" as="geometry"/>
                </mxCell>
                <mxCell id="12" style="edgeStyle=none;html=1;exitX=0.5;exitY=1;exitDx=0;exitDy=0;entryX=0.5;entryY=0;entryDx=0;entryDy=0;fontSize=21;strokeWidth=3;fontFamily=Noto Sans Japanese;fontSource=https%3A%2F%2Ffonts.googleapis.com%2Fcss%3Ffamily%3DNoto%2BSans%2BJapanese;" parent="1" source="3" target="4" edge="1">
                    <mxGeometry relative="1" as="geometry"/>
                </mxCell>
                <mxCell id="3" value="開始" style="whiteSpace=wrap;html=1;rounded=1;arcSize=39;fontSize=21;fontFamily=Noto Sans Japanese;fontSource=https%3A%2F%2Ffonts.googleapis.com%2Fcss%3Ffamily%3DNoto%2BSans%2BJapanese;" parent="1" vertex="1">
                    <mxGeometry x="230" y="20" width="120" height="40" as="geometry"/>
                </mxCell>
                <mxCell id="27" style="edgeStyle=none;html=1;exitX=0.5;exitY=1;exitDx=0;exitDy=0;strokeWidth=3;entryX=0.5;entryY=0;entryDx=0;entryDy=0;fontFamily=Noto Sans Japanese;fontSource=https%3A%2F%2Ffonts.googleapis.com%2Fcss%3Ffamily%3DNoto%2BSans%2BJapanese;" parent="1" source="4" target="26" edge="1">
                    <mxGeometry relative="1" as="geometry">
                        <mxPoint x="290" y="170" as="targetPoint"/>
                    </mxGeometry>
                </mxCell>
                <mxCell id="4" value="初期個体の生成" style="whiteSpace=wrap;html=1;fontSize=21;fontFamily=Noto Sans Japanese;fontSource=https%3A%2F%2Ffonts.googleapis.com%2Fcss%3Ffamily%3DNoto%2BSans%2BJapanese;" parent="1" vertex="1">
                    <mxGeometry x="190" y="100" width="200" height="40" as="geometry"/>
                </mxCell>
                <mxCell id="22" style="edgeStyle=none;jumpStyle=arc;html=1;exitX=1;exitY=0.5;exitDx=0;exitDy=0;fontSize=21;strokeWidth=3;fontFamily=Noto Sans Japanese;fontSource=https%3A%2F%2Ffonts.googleapis.com%2Fcss%3Ffamily%3DNoto%2BSans%2BJapanese;" parent="1" source="5" edge="1">
                    <mxGeometry relative="1" as="geometry">
                        <mxPoint x="290" y="750" as="targetPoint"/>
                        <Array as="points">
                            <mxPoint x="430" y="400"/>
                            <mxPoint x="430" y="710"/>
                            <mxPoint x="290" y="710"/>
                        </Array>
                    </mxGeometry>
                </mxCell>
                <mxCell id="29" style="edgeStyle=none;html=1;exitX=0.5;exitY=1;exitDx=0;exitDy=0;entryX=0.5;entryY=0;entryDx=0;entryDy=0;strokeWidth=3;fontFamily=Noto Sans Japanese;fontSource=https%3A%2F%2Ffonts.googleapis.com%2Fcss%3Ffamily%3DNoto%2BSans%2BJapanese;" parent="1" source="5" target="7" edge="1">
                    <mxGeometry relative="1" as="geometry"/>
                </mxCell>
                <mxCell id="5" value="終了条件" style="rhombus;whiteSpace=wrap;html=1;fontSize=21;fontFamily=Noto Sans Japanese;fontSource=https%3A%2F%2Ffonts.googleapis.com%2Fcss%3Ffamily%3DNoto%2BSans%2BJapanese;" parent="1" vertex="1">
                    <mxGeometry x="210" y="360" width="160" height="80" as="geometry"/>
                </mxCell>
                <mxCell id="31" style="edgeStyle=none;html=1;exitX=0.5;exitY=1;exitDx=0;exitDy=0;entryX=0.5;entryY=0;entryDx=0;entryDy=0;strokeWidth=3;fontFamily=Noto Sans Japanese;fontSource=https%3A%2F%2Ffonts.googleapis.com%2Fcss%3Ffamily%3DNoto%2BSans%2BJapanese;" parent="1" source="6" target="5" edge="1">
                    <mxGeometry relative="1" as="geometry"/>
                </mxCell>
                <mxCell id="6" value="評価" style="whiteSpace=wrap;html=1;fontSize=21;fontFamily=Noto Sans Japanese;fontSource=https%3A%2F%2Ffonts.googleapis.com%2Fcss%3Ffamily%3DNoto%2BSans%2BJapanese;" parent="1" vertex="1">
                    <mxGeometry x="230" y="280" width="120" height="40" as="geometry"/>
                </mxCell>
                <mxCell id="18" style="edgeStyle=none;html=1;exitX=0.5;exitY=1;exitDx=0;exitDy=0;entryX=0.5;entryY=0;entryDx=0;entryDy=0;fontSize=21;strokeWidth=3;fontFamily=Noto Sans Japanese;fontSource=https%3A%2F%2Ffonts.googleapis.com%2Fcss%3Ffamily%3DNoto%2BSans%2BJapanese;" parent="1" source="7" target="8" edge="1">
                    <mxGeometry relative="1" as="geometry"/>
                </mxCell>
                <mxCell id="7" value="選択処理" style="whiteSpace=wrap;html=1;fontSize=21;fontFamily=Noto Sans Japanese;fontSource=https%3A%2F%2Ffonts.googleapis.com%2Fcss%3Ffamily%3DNoto%2BSans%2BJapanese;" parent="1" vertex="1">
                    <mxGeometry x="230" y="480" width="120" height="40" as="geometry"/>
                </mxCell>
                <mxCell id="19" style="edgeStyle=none;html=1;exitX=0.5;exitY=1;exitDx=0;exitDy=0;entryX=0.5;entryY=0;entryDx=0;entryDy=0;fontSize=21;strokeWidth=3;fontFamily=Noto Sans Japanese;fontSource=https%3A%2F%2Ffonts.googleapis.com%2Fcss%3Ffamily%3DNoto%2BSans%2BJapanese;" parent="1" source="8" target="9" edge="1">
                    <mxGeometry relative="1" as="geometry"/>
                </mxCell>
                <mxCell id="8" value="交叉処理" style="whiteSpace=wrap;html=1;fontSize=21;fontFamily=Noto Sans Japanese;fontSource=https%3A%2F%2Ffonts.googleapis.com%2Fcss%3Ffamily%3DNoto%2BSans%2BJapanese;" parent="1" vertex="1">
                    <mxGeometry x="230" y="560" width="120" height="40" as="geometry"/>
                </mxCell>
                <mxCell id="20" style="edgeStyle=none;html=1;exitX=0;exitY=0.5;exitDx=0;exitDy=0;fontSize=21;strokeWidth=3;fontFamily=Noto Sans Japanese;fontSource=https%3A%2F%2Ffonts.googleapis.com%2Fcss%3Ffamily%3DNoto%2BSans%2BJapanese;" parent="1" source="9" edge="1">
                    <mxGeometry relative="1" as="geometry">
                        <Array as="points">
                            <mxPoint x="150" y="660"/>
                            <mxPoint x="150" y="170"/>
                        </Array>
                        <mxPoint x="280" y="170" as="targetPoint"/>
                    </mxGeometry>
                </mxCell>
                <mxCell id="9" value="突然変異" style="whiteSpace=wrap;html=1;fontSize=21;fontFamily=Noto Sans Japanese;fontSource=https%3A%2F%2Ffonts.googleapis.com%2Fcss%3Ffamily%3DNoto%2BSans%2BJapanese;" parent="1" vertex="1">
                    <mxGeometry x="230" y="640" width="120" height="40" as="geometry"/>
                </mxCell>
                <mxCell id="21" value="終了" style="whiteSpace=wrap;html=1;rounded=1;arcSize=39;fontSize=21;fontFamily=Noto Sans Japanese;fontSource=https%3A%2F%2Ffonts.googleapis.com%2Fcss%3Ffamily%3DNoto%2BSans%2BJapanese;" parent="1" vertex="1">
                    <mxGeometry x="230" y="760" width="120" height="40" as="geometry"/>
                </mxCell>
                <mxCell id="23" value="NO" style="text;html=1;align=center;verticalAlign=middle;resizable=0;points=[];autosize=1;strokeColor=none;fontSize=18;fontFamily=Noto Sans Japanese;fontSource=https%3A%2F%2Ffonts.googleapis.com%2Fcss%3Ffamily%3DNoto%2BSans%2BJapanese;" parent="1" vertex="1">
                    <mxGeometry x="294" y="435" width="40" height="30" as="geometry"/>
                </mxCell>
                <mxCell id="24" value="YES" style="text;html=1;align=center;verticalAlign=middle;resizable=0;points=[];autosize=1;strokeColor=none;fontSize=18;fontFamily=Noto Sans Japanese;fontSource=https%3A%2F%2Ffonts.googleapis.com%2Fcss%3Ffamily%3DNoto%2BSans%2BJapanese;" parent="1" vertex="1">
                    <mxGeometry x="365" y="370" width="50" height="30" as="geometry"/>
                </mxCell>
                <mxCell id="30" style="edgeStyle=none;html=1;exitX=0.5;exitY=1;exitDx=0;exitDy=0;entryX=0.5;entryY=0;entryDx=0;entryDy=0;strokeWidth=3;fontFamily=Noto Sans Japanese;fontSource=https%3A%2F%2Ffonts.googleapis.com%2Fcss%3Ffamily%3DNoto%2BSans%2BJapanese;" parent="1" source="26" target="6" edge="1">
                    <mxGeometry relative="1" as="geometry"/>
                </mxCell>
                <mxCell id="26" value="個体の提示" style="whiteSpace=wrap;html=1;fontSize=21;fontFamily=Noto Sans Japanese;fontSource=https%3A%2F%2Ffonts.googleapis.com%2Fcss%3Ffamily%3DNoto%2BSans%2BJapanese;" parent="1" vertex="1">
                    <mxGeometry x="190" y="200" width="200" height="40" as="geometry"/>
                </mxCell>
                <mxCell id="32" value="ユーザ" style="text;html=1;strokeColor=none;fillColor=none;align=center;verticalAlign=middle;whiteSpace=wrap;rounded=0;opacity=50;fontSize=18;fontFamily=Noto Sans Japanese;fontSource=https%3A%2F%2Ffonts.googleapis.com%2Fcss%3Ffamily%3DNoto%2BSans%2BJapanese;" parent="1" vertex="1">
                    <mxGeometry x="391" y="271" width="60" height="30" as="geometry"/>
                </mxCell>
            </root>
        </mxGraphModel>
    </diagram>
</mxfile>